<svg width="24" height="24" viewBox="0 0 24 24" fill="none" xmlns="http://www.w3.org/2000/svg">
<path d="M6.00012 22H18.0001C18.2653 22 18.5197 22.1054 18.7072 22.2929C18.8948 22.4804 19.0001 22.7348 19.0001 23C19.0001 23.2652 18.8948 23.5196 18.7072 23.7071C18.5197 23.8946 18.2653 24 18.0001 24H6.00012C5.73491 24 5.48055 23.8946 5.29301 23.7071C5.10548 23.5196 5.00012 23.2652 5.00012 23C5.00012 22.7348 5.10548 22.4804 5.29301 22.2929C5.48055 22.1054 5.73491 22 6.00012 22Z" fill="#3F4CD0"/>
<path d="M15.9203 15.6201C15.8452 15.4374 15.7178 15.2811 15.5541 15.1708C15.3904 15.0604 15.1977 15.001 15.0003 15.0001H13.0003V9.00006C13.0003 8.73484 12.8949 8.48049 12.7074 8.29295C12.5198 8.10542 12.2655 8.00006 12.0003 8.00006C11.735 8.00006 11.4807 8.10542 11.2932 8.29295C11.1056 8.48049 11.0003 8.73484 11.0003 9.00006V15.0001H9.00026C8.80284 15.001 8.61012 15.0604 8.4464 15.1708C8.28268 15.2811 8.15528 15.4374 8.08026 15.6201C8.00368 15.8022 7.98276 16.0029 8.02013 16.1969C8.05751 16.3909 8.1515 16.5694 8.29026 16.7101L11.2903 19.7101C11.3854 19.8011 11.4975 19.8725 11.6203 19.9201C11.74 19.973 11.8694 20.0003 12.0003 20.0003C12.1311 20.0003 12.2606 19.973 12.3803 19.9201C12.503 19.8725 12.6152 19.8011 12.7103 19.7101L15.7103 16.7101C15.849 16.5694 15.943 16.3909 15.9804 16.1969C16.0178 16.0029 15.9968 15.8022 15.9203 15.6201Z" fill="#3F4CD0"/>
</svg>
