<svg width="24" height="24" viewBox="0 0 24 24" fill="none" xmlns="http://www.w3.org/2000/svg">
<path d="M15.5789 6.21053C15.5789 7.98365 14.1415 9.42105 12.3684 9.42105V11.4211C15.2461 11.4211 17.5789 9.08822 17.5789 6.21053H15.5789ZM12.3684 9.42105C10.5953 9.42105 9.1579 7.98365 9.1579 6.21053H7.1579C7.1579 9.08822 9.49073 11.4211 12.3684 11.4211V9.42105ZM9.1579 6.21053C9.1579 4.4374 10.5953 3 12.3684 3V1C9.49073 1 7.1579 3.33283 7.1579 6.21053H9.1579ZM12.3684 3C14.1415 3 15.5789 4.4374 15.5789 6.21053H17.5789C17.5789 3.33283 15.2461 1 12.3684 1V3ZM9.21053 14.5789H15.5263V12.5789H9.21053V14.5789ZM15.5263 21H9.21053V23H15.5263V21ZM9.21053 21C7.4374 21 6 19.5626 6 17.7895H4C4 20.6672 6.33283 23 9.21053 23V21ZM18.7368 17.7895C18.7368 19.5626 17.2994 21 15.5263 21V23C18.404 23 20.7368 20.6672 20.7368 17.7895H18.7368ZM15.5263 14.5789C17.2994 14.5789 18.7368 16.0163 18.7368 17.7895H20.7368C20.7368 14.9118 18.404 12.5789 15.5263 12.5789V14.5789ZM9.21053 12.5789C6.33283 12.5789 4 14.9118 4 17.7895H6C6 16.0163 7.4374 14.5789 9.21053 14.5789V12.5789Z" fill="#3F4CD0"/>
</svg>
